<svg fill="none" stroke-width="1.5" viewBox="0 0 24 24" xmlns="http://www.w3.org/2000/svg"><path d="M7 12.5a.5.5 0 1 0 0-1 .5.5 0 0 0 0 1ZM12 12.5a.5.5 0 1 0 0-1 .5.5 0 0 0 0 1ZM17 12.5a.5.5 0 1 0 0-1 .5.5 0 0 0 0 1Z" fill="#ffffff" stroke="#ffffff" stroke-linecap="round" stroke-linejoin="round" class="fill-000000 stroke-000000"></path><path d="M12 22c5.523 0 10-4.477 10-10S17.523 2 12 2 2 6.477 2 12s4.477 10 10 10Z" stroke="#ffffff" stroke-linecap="round" stroke-linejoin="round" class="stroke-000000"></path></svg>